<svg width="33" height="32" viewBox="0 0 33 32" fill="none" xmlns="http://www.w3.org/2000/svg">
<path d="M23.8331 14.6663C24.9377 14.6663 25.8331 13.7708 25.8331 12.6663C25.8331 11.5617 24.9377 10.6663 23.8331 10.6663C22.7286 10.6663 21.8331 11.5617 21.8331 12.6663C21.8331 13.7708 22.7286 14.6663 23.8331 14.6663Z" fill="#A77DFB"/>
<path d="M17.1663 10.6663C18.2708 10.6663 19.1663 9.77083 19.1663 8.66626C19.1663 7.56169 18.2708 6.66626 17.1663 6.66626C16.0617 6.66626 15.1663 7.56169 15.1663 8.66626C15.1663 9.77083 16.0617 10.6663 17.1663 10.6663Z" fill="#A77DFB"/>
<path d="M10.5 14.6663C11.6046 14.6663 12.5 13.7708 12.5 12.6663C12.5 11.5617 11.6046 10.6663 10.5 10.6663C9.39543 10.6663 8.5 11.5617 8.5 12.6663C8.5 13.7708 9.39543 14.6663 10.5 14.6663Z" fill="#A77DFB"/>
<path d="M10.5 22.6663C11.6046 22.6663 12.5 21.7708 12.5 20.6663C12.5 19.5617 11.6046 18.6663 10.5 18.6663C9.39543 18.6663 8.5 19.5617 8.5 20.6663C8.5 21.7708 9.39543 22.6663 10.5 22.6663Z" fill="#A77DFB"/>
<path d="M16.6104 31.9999C13.4227 31.9996 10.3078 31.0472 7.66506 29.2647C5.02233 27.4823 2.97225 24.951 1.77772 21.9957C0.583185 19.0403 0.298656 15.7954 0.960616 12.6773C1.62258 9.5591 3.20085 6.70973 5.49304 4.49455C7.03279 2.99417 8.86172 1.82279 10.8686 1.05169C12.8754 0.280595 15.0181 -0.0740918 17.1664 0.00921751C21.226 0.198701 25.0664 1.90653 27.9261 4.79419C30.7859 7.68186 32.4563 11.5386 32.6064 15.5999C32.6607 17.671 32.3097 19.7328 31.573 21.6692C31.4231 22.0637 31.1764 22.4142 30.8556 22.6885C30.5347 22.9627 30.1501 23.1519 29.737 23.2386C29.3172 23.331 28.8808 23.3158 28.4684 23.1944C28.056 23.0729 27.6811 22.8492 27.3784 22.5439L27.245 22.4106C26.5774 21.743 25.7262 21.2892 24.7999 21.1071C23.8735 20.9249 22.9139 21.0226 22.0432 21.3876C21.1725 21.7527 20.4302 22.3686 19.9108 23.157C19.3913 23.9454 19.1183 24.8705 19.1264 25.8146L19.1797 31.8359L17.9477 31.9386C17.5037 31.9706 17.061 31.9999 16.6104 31.9999ZM16.6104 2.66655C13.0742 2.65064 9.67645 4.04013 7.16471 6.52937C4.65297 9.0186 3.23295 12.4037 3.21704 15.9399C3.20113 19.4761 4.59063 22.8738 7.07986 25.3855C9.56909 27.8973 12.9542 29.3173 16.4904 29.3332L16.4584 25.8332C16.4523 24.8479 16.6414 23.8711 17.0146 22.9592C17.3879 22.0473 17.9379 21.2182 18.633 20.5199C20.0255 19.1292 21.9131 18.3481 23.881 18.3481C25.849 18.3481 27.7366 19.1292 29.129 20.5199L29.1477 20.5386C29.7166 18.9785 29.9857 17.3251 29.941 15.6652C29.8164 12.2819 28.4253 9.06894 26.0435 6.6629C23.6617 4.25687 20.4629 2.83339 17.081 2.67455C16.9224 2.66655 16.7664 2.66655 16.609 2.66655H16.6104Z" fill="#A77DFB"/>
</svg>
