<svg width="29" height="28" viewBox="0 0 29 28" fill="none" xmlns="http://www.w3.org/2000/svg">
<g clip-path="url(#clip0_20_13870)">
<path d="M16.928 6.517L1.55015 21.8972C0.918308 22.5747 0.574168 23.471 0.590262 24.3973C0.606356 25.3236 0.981427 26.2074 1.63643 26.8626C2.29143 27.5177 3.17519 27.893 4.10146 27.9093C5.02774 27.9256 5.92416 27.5817 6.60182 26.95L21.9832 11.5722L16.928 6.517ZM18.6838 11.5722L15.6668 14.5892L13.9168 12.8333L16.9338 9.81633L18.6838 11.5722ZM4.95215 25.3027C4.71631 25.5275 4.40298 25.6529 4.07715 25.6529C3.75133 25.6529 3.438 25.5275 3.20215 25.3027C2.97047 25.0704 2.84036 24.7557 2.84036 24.4277C2.84036 24.0996 2.97047 23.7849 3.20215 23.5527L12.266 14.4877L14.0218 16.2435L4.95215 25.3027ZM25.3887 17.066L28.5002 18.6223L25.3887 20.1833L23.8335 23.289L22.2783 20.1833L19.1668 18.6223L22.2783 17.066L23.8335 13.9557L25.3887 17.066ZM8.27832 6.22183L5.16682 4.66667L8.27832 3.1115L9.83349 0L11.3887 3.1115L14.5002 4.66667L11.3887 6.22183L9.83349 9.33333L8.27832 6.22183ZM23.0553 5.44483L20.3335 4.08333L23.0553 2.72183L24.4168 0L25.7783 2.72183L28.5002 4.08333L25.7783 5.44483L24.4168 8.16667L23.0553 5.44483Z" fill="white"/>
</g>
<defs>
<clipPath id="clip0_20_13870">
<rect width="28" height="28" fill="white" transform="translate(0.5)"/>
</clipPath>
</defs>
</svg>
