<svg width="33" height="32" viewBox="0 0 33 32" fill="none" xmlns="http://www.w3.org/2000/svg">
<g clip-path="url(#clip0_7_13840)">
<path d="M29.0415 9.63733C28.6695 9.13076 28.1837 8.71866 27.6232 8.43426C27.0627 8.14986 26.4433 8.00111 25.8148 8H7.18548C6.55698 8.00111 5.93754 8.14986 5.37708 8.43426C4.81662 8.71866 4.33081 9.13076 3.95881 9.63733L1.22948 13.3613C0.655168 14.1424 0.384968 15.106 0.46938 16.0718C0.553793 17.0376 0.987041 17.9397 1.68814 18.6093L16.5001 31.908L31.3615 18.564C32.045 17.8921 32.4628 16.996 32.538 16.0405C32.6132 15.085 32.3408 14.1345 31.7708 13.364L29.0415 9.63733ZM10.2455 17.3333L13.3188 25.4667L4.25481 17.3333H10.2455ZM19.9041 17.3333L16.5001 26.3427L13.0961 17.3333H19.9041ZM13.1361 14.6667L14.7361 10.6667H18.2641L19.8641 14.6667H13.1361ZM22.7548 17.3333H28.7428L19.6761 25.4667L22.7548 17.3333ZM26.8881 11.212L29.4228 14.6667H22.7361L21.1361 10.6667H25.8148C26.0244 10.6666 26.2311 10.7159 26.418 10.8107C26.605 10.9054 26.7669 11.0429 26.8908 11.212H26.8881ZM6.10681 11.212C6.23094 11.0426 6.39335 10.9049 6.5808 10.8101C6.76825 10.7153 6.97543 10.6662 7.18548 10.6667H11.8641L10.2641 14.6667H3.57748L6.10681 11.212Z" fill="#A77DFB"/>
<path d="M17.8336 0H15.1669V5.33333H17.8336V0Z" fill="#A77DFB"/>
<path d="M24.7092 0.759458L22.0428 4.9502L24.2935 6.38219L26.9599 2.19146L24.7092 0.759458Z" fill="#A77DFB"/>
<path d="M8.29154 0.771111L6.04199 2.20312L8.7084 6.39178L10.9579 4.95976L8.29154 0.771111Z" fill="#A77DFB"/>
</g>
<defs>
<clipPath id="clip0_7_13840">
<rect width="32" height="32" fill="white" transform="translate(0.5)"/>
</clipPath>
</defs>
</svg>
